<svg height="512pt" viewBox="-61 0 512 512" width="512pt" xmlns="http://www.w3.org/2000/svg"><path d="m375 61h-35.097656c-50.703125 0-98.402344-20.800781-134.402344-56.5-2.699219-3-6.601562-4.5-10.5-4.5s-7.800781 1.5-10.5 4.5c-36 35.699219-83.699219 56.5-134.402344 56.5h-35.097656c-8.402344 0-15 6.597656-15 15v180c0 134.699219 98.101562 197.5 162.898438 238.300781 8.402343 5.398438 16.5 10.199219 23.699218 15.296875 2.703125 1.5 5.402344 2.402344 8.402344 2.402344s5.699219-.902344 8.402344-2.402344c6.898437-4.796875 14.699218-9.597656 23.097656-15 65.097656-40.796875 163.5-103.597656 163.5-238.597656v-180c0-8.402344-6.597656-15-15-15zm0 0" fill="#70da40"/><path d="m390 76v180c0 135-98.402344 197.800781-163.5 238.597656-8.398438 5.402344-16.199219 10.203125-23.097656 15-2.703125 1.5-5.402344 2.402344-8.402344 2.402344v-512c3.898438 0 7.800781 1.5 10.5 4.5 36 35.699219 83.699219 56.5 134.402344 56.5h35.097656c8.402344 0 15 6.597656 15 15zm0 0" fill="#49a520"/><path d="m195 121c-74.398438 0-135 60.597656-135 135 0 74.398438 60.601562 135 135 135s135-60.601562 135-135c0-74.402344-60.601562-135-135-135zm0 0" fill="#deecf1"/><path d="m330 256c0 74.398438-60.601562 135-135 135v-270c74.398438 0 135 60.597656 135 135zm0 0" fill="#c6e2e7"/><path d="m265.5 236.5-75 75c-2.699219 3-6.601562 4.5-10.5 4.5s-7.800781-1.5-10.5-4.5l-45-45c-6-5.699219-6-15.300781 0-21 5.699219-6 15.300781-6 21 0l34.5 34.199219 15-15 49.503906-49.199219c5.699219-6 15.296875-6 20.996094 0 6 5.699219 6 15.300781 0 21zm0 0" fill="#70da40"/><path d="m265.5 236.5-70.5 70.5v-42.300781l49.5-49.199219c5.699219-6 15.300781-6 21 0 6 5.699219 6 15.300781 0 21zm0 0" fill="#49a520"/></svg>