<svg id="Layer_3" enable-background="new 0 0 64 64" height="512" viewBox="0 0 64 64" width="512" xmlns="http://www.w3.org/2000/svg"><path d="m60 1c-1.654 0-3 1.346-3 3v1h-2c-1.654 0-3 1.346-3 3v1c-.521 0-.953.398-.996.917l-.924 11.083h-10.099c1.261-1.674 2.019-3.748 2.019-6v-4c0-5.514-4.486-10-10-10s-10 4.486-10 10v4c0 2.252.758 4.326 2.019 6h-10.099l-.924-11.083c-.043-.519-.475-.917-.996-.917v-1c0-1.654-1.346-3-3-3h-2v-1c0-1.654-1.346-3-3-3s-3 1.346-3 3v2c0 2.757 2.243 5 5 5v13c0 2.757 2.243 5 5 5h10v5 11.5l-3.415 2.561c-3.705.454-6.585 3.613-6.585 7.439 0 4.136 3.364 7.5 7.5 7.5h9.5 8 9.5c4.136 0 7.5-3.364 7.5-7.5 0-3.826-2.88-6.985-6.585-7.438l-3.415-2.562v-16.5h10c2.757 0 5-2.243 5-5v-13c2.757 0 5-2.243 5-5v-2c0-1.654-1.346-3-3-3zm-36 10c0-4.411 3.589-8 8-8s8 3.589 8 8v4c0 4.411-3.589 8-8 8s-8-3.589-8-8zm11.779 13.253c-.529 1.59-2.013 2.747-3.779 2.747s-3.25-1.157-3.779-2.747c1.167.478 2.442.747 3.779.747s2.612-.269 3.779-.747zm-28.779-15.253h-1c-1.654 0-3-1.346-3-3v-2c0-.552.448-1 1-1s1 .448 1 1v2c0 .553.447 1 1 1h3c.552 0 1 .448 1 1v1zm1 15v-13h3.08l.924 11.083c.043.519.475.917.996.917h2v4h-4c-1.654 0-3-1.346-3-3zm25.565 28.431c-3.195-2.27-6.906-3.697-10.819-4.132l-1.868-.208 1.455-1.091h19.334l1.526 1.144c-3.543.712-6.816 2.186-9.628 4.287zm7.435-7.431h-18v-2h18zm-28 10.5c0-3.032 2.468-5.5 5.5-5.5h1.444l2.581.287c3.39.376 6.613 1.568 9.426 3.459-2.024 1.808-3.753 3.969-5.093 6.425l-.452.829h-7.906c-3.032 0-5.5-2.468-5.5-5.5zm38 0c0 3.032-2.468 5.5-5.5 5.5h-9.5-7.315c3.212-5.797 8.783-9.796 15.312-10.982l1.503-.018c3.032 0 5.5 2.468 5.5 5.5zm-9-28.5c-.553 0-1 .447-1 1v13h-18v-7-6c0-.553-.447-1-1-1h-5v-4h9c0 3.309 2.691 6 6 6s6-2.691 6-6h9v4zm14-3c0 1.654-1.346 3-3 3h-4v-4h2c.521 0 .953-.398.996-.917l.924-11.083h3.08zm5-18c0 1.654-1.346 3-3 3h-1-3v-1c0-.552.448-1 1-1h3c.553 0 1-.447 1-1v-2c0-.552.448-1 1-1s1 .448 1 1z"/><path d="m31 21h2v-10h4v-2h-4v-4h-2v4h-4v2h4z"/></svg>