<?xml version="1.0" standalone="no"?>
<!DOCTYPE svg PUBLIC "-//W3C//DTD SVG 20010904//EN"
 "http://www.w3.org/TR/2001/REC-SVG-20010904/DTD/svg10.dtd">
<svg version="1.0" xmlns="http://www.w3.org/2000/svg"
 width="626.000000pt" height="626.000000pt" viewBox="0 0 626.000000 626.000000"
 preserveAspectRatio="xMidYMid meet">
<metadata>
Created by potrace 1.11, written by Peter Selinger 2001-2013
</metadata>
<g transform="translate(0.000000,626.000000) scale(0.100000,-0.100000)"
fill="#000000" stroke="none">
<path d="M4620 3743 c-8 -2 -22 -7 -30 -10 -8 -3 -24 -8 -35 -10 -10 -2 -22
-7 -25 -11 -3 -4 -9 -7 -15 -7 -24 -1 -75 -17 -80 -26 -5 -7 -7 -486 -5 -1076
l0 -83 113 0 113 0 0 615 c0 428 -3 615 -10 614 -6 0 -18 -3 -26 -6z"/>
<path d="M280 3606 l-95 -32 0 -350 c0 -346 0 -349 24 -409 72 -177 218 -291
396 -309 l46 -5 -3 116 -3 116 -31 2 c-39 2 -111 39 -142 73 -50 56 -65 107
-66 234 l-1 118 25 1 c14 0 69 1 123 1 l97 1 0 102 c0 120 11 112 -137 109
-87 -2 -102 0 -105 14 -2 10 -3 70 -2 135 1 102 -1 117 -15 116 -9 0 -59 -15
-111 -33z"/>
<path d="M1308 3394 c-2 -1 -21 -4 -43 -8 -102 -14 -185 -57 -262 -134 -32
-33 -63 -66 -70 -74 -12 -16 -51 -90 -51 -98 0 -3 -5 -17 -11 -32 -18 -48 -24
-129 -25 -328 l0 -195 115 -3 114 -3 0 223 c-1 201 1 226 18 256 10 17 15 32
10 32 -4 0 0 5 10 11 9 5 17 17 17 24 0 8 7 15 15 15 8 0 15 7 15 16 0 8 5 12
10 9 6 -3 10 -2 10 3 0 12 86 49 124 54 15 3 31 9 34 15 6 9 7 122 3 204 -1
13 -24 22 -33 13z"/>
<path d="M5033 3363 l-103 -35 0 -404 0 -404 98 -1 c96 -1 124 0 130 6 3 3 5
700 3 843 -1 19 -6 32 -13 31 -7 0 -59 -16 -115 -36z"/>
<path d="M2082 3359 c4 -29 -3 -31 -39 -11 -13 7 -23 10 -23 7 0 -3 -13 1 -28
9 -45 23 -204 15 -267 -14 -27 -13 -52 -24 -55 -24 -12 -2 -77 -53 -103 -81
-32 -33 -78 -102 -81 -119 -1 -6 -7 -21 -14 -33 -13 -23 -24 -85 -26 -138 -2
-87 35 -208 83 -269 43 -55 132 -127 161 -131 3 0 10 -3 16 -7 49 -31 244 -53
259 -28 3 5 10 8 15 5 5 -3 26 1 47 10 38 16 69 13 58 -5 -4 -6 34 -10 108
-10 l115 0 1 430 c0 237 -2 430 -7 431 -4 0 -56 2 -115 2 l-109 2 4 -26z
m-158 -209 c13 0 40 -11 60 -25 21 -14 34 -20 30 -14 -4 8 -3 9 4 5 7 -4 12
-14 12 -22 0 -8 4 -14 9 -14 17 0 51 -90 51 -137 0 -76 -67 -183 -116 -183 -8
0 -13 -4 -10 -8 13 -21 -120 -19 -169 3 -22 10 -44 17 -50 16 -5 -2 -7 1 -3 5
4 4 -1 14 -11 23 -67 59 -75 205 -16 271 8 9 12 20 8 25 -5 4 -3 5 4 1 7 -4
17 2 23 14 6 11 15 18 20 15 4 -3 16 2 24 11 9 8 16 13 16 11 0 -2 15 -1 33 3
17 4 38 6 45 4 8 -2 24 -4 36 -4z"/>
<path d="M2459 3369 c-8 -4 21 -81 104 -279 5 -14 11 -30 12 -36 2 -6 10 -27
18 -45 23 -49 92 -218 139 -339 23 -58 45 -108 50 -111 6 -3 9 -9 9 -13 -3
-24 5 -27 96 -24 l96 3 64 155 c36 85 66 162 68 171 2 9 8 25 14 35 11 21 71
163 75 179 2 6 8 21 13 35 11 25 72 176 88 215 5 11 9 22 9 25 1 3 5 10 9 17
4 6 4 13 0 15 -7 3 -129 3 -214 -1 -22 -1 -29 -10 -52 -68 -14 -38 -27 -75
-29 -83 -2 -8 -6 -17 -9 -20 -3 -3 -31 -72 -63 -155 -31 -82 -61 -154 -65
-158 -4 -4 -16 14 -25 40 -10 26 -24 62 -31 78 -7 17 -16 41 -20 54 -4 13 -14
40 -23 60 -9 20 -16 38 -17 41 -1 6 -39 105 -56 145 -6 17 -13 36 -15 43 -1 8
-5 16 -7 19 -7 7 -227 9 -238 2z"/>
<path d="M3705 3365 c-66 -16 -125 -43 -125 -56 0 -5 -4 -7 -10 -4 -13 8 -133
-112 -125 -125 3 -5 1 -10 -5 -10 -12 0 -50 -82 -54 -115 -1 -12 -5 -25 -9
-31 -3 -6 -4 -48 -3 -95 5 -100 19 -145 71 -224 29 -44 91 -105 99 -98 3 3 6
2 6 -4 0 -5 23 -22 50 -37 28 -15 50 -24 50 -20 0 3 6 2 13 -4 40 -33 203 -34
282 -1 17 7 32 13 35 13 15 3 98 57 113 74 19 20 18 22 -59 95 l-78 75 -34
-26 c-37 -28 -42 -30 -113 -36 -34 -3 -59 1 -95 19 -55 26 -102 70 -82 77 7 2
145 4 306 3 253 0 292 2 293 15 2 32 -2 156 -6 182 -3 14 -15 48 -27 75 -12
26 -22 50 -22 53 -3 17 -86 111 -116 131 -35 24 -116 68 -125 69 -3 0 -6 0 -7
1 -52 15 -168 18 -223 4z m191 -230 c13 -8 24 -13 24 -9 0 9 47 -50 49 -61 1
-6 -62 -10 -169 -10 -125 0 -170 3 -170 12 0 17 70 72 105 82 43 12 133 4 161
-14z"/>
<path d="M5308 3365 c3 -5 73 -101 155 -213 l149 -202 -34 -48 c-19 -26 -87
-121 -152 -210 -65 -90 -116 -165 -114 -167 6 -6 35 -7 148 -6 l116 1 84 115
c47 63 87 114 90 115 3 0 44 -52 90 -115 l85 -114 55 -2 c70 -1 213 1 216 4 1
1 -67 98 -152 214 l-154 213 150 206 c82 113 150 209 150 212 0 4 -61 7 -136
6 -107 0 -138 -3 -144 -15 -5 -8 -43 -60 -85 -117 l-76 -103 -76 108 c-42 59
-80 112 -85 118 -12 13 -288 13 -280 0z"/>
</g>
</svg>
