<?xml version="1.0" encoding="UTF-8" standalone="no"?>
<!DOCTYPE svg PUBLIC "-//W3C//DTD SVG 1.1//EN" "http://www.w3.org/Graphics/SVG/1.1/DTD/svg11.dtd">
<svg version="1.1" xmlns="http://www.w3.org/2000/svg" xmlns:xlink="http://www.w3.org/1999/xlink" preserveAspectRatio="xMidYMid meet" viewBox="0 0 640 640" width="24" height="24"><defs><path d="M640.6 319.7C640.6 496.48 497.08 640 320.3 640C143.52 640 0 496.48 0 319.7C0 142.92 143.52 -0.6 320.3 -0.6C497.08 -0.6 640.6 142.92 640.6 319.7Z" id="k3KugtVvOS"></path><path d="M140.2 393.15C140.2 414.12 157.19 431.11 178.16 431.11C199.12 431.09 216.1 414.11 216.12 393.15C216.12 372.18 199.13 355.19 178.16 355.19C157.19 355.19 140.2 372.18 140.2 393.15Z" id="a2TtZbX6qd"></path><path d="M456.76 431.11L456.76 431.11L456.76 431.11L456.76 431.11Z" id="e1io8qG3AQ"></path><path d="M491.5 287.13C490.06 286.49 488.84 285.43 488 284.1C484.33 278.26 454.99 231.5 451.33 225.65C444.5 214.75 432.5 208.17 419.64 208.28C404.74 208.28 285.53 208.28 270.63 208.28C258.99 208.25 248.01 213.63 240.91 222.85C236.19 229.02 198.47 278.45 193.75 284.62C192.7 286.04 191.2 287.06 189.5 287.53C181.62 289.68 118.58 306.94 110.69 309.09C99.44 312.23 91.68 322.51 91.76 334.19C91.76 337.08 91.76 360.13 91.76 363.02C91.76 377.36 102.97 389.3 117.32 389.3C118.01 389.3 123.5 389.3 124.19 389.3C126.21 362.63 147.4 341.44 174.06 339.42C203.87 337.16 229.87 359.49 232.13 389.3C249.2 389.3 385.72 389.3 402.79 389.3C404.81 362.63 426 341.44 452.66 339.42C482.47 337.16 508.47 359.49 510.73 389.3C511.98 389.3 522.03 389.3 523.28 389.3C537.63 389.3 548.84 377.36 548.84 363.02C548.84 359.73 548.84 333.41 548.84 330.12C548.92 319.96 543.04 310.69 533.82 306.44C525.36 302.58 495.74 289.06 491.5 287.13Z" id="c6FNdKYrB"></path><path d="M418.79 393.15C418.79 414.12 435.79 431.11 456.76 431.11C477.71 431.09 494.7 414.11 494.72 393.15C494.72 372.18 477.72 355.19 456.76 355.19C435.79 355.19 418.79 372.18 418.79 393.15Z" id="d2H05tZYE7"></path></defs><g><g><g><use xlink:href="#k3KugtVvOS" opacity="1" fill="#409cd1" fill-opacity="1"></use></g><g><use xlink:href="#a2TtZbX6qd" opacity="1" fill="#ffffff" fill-opacity="1"></use><g><use xlink:href="#a2TtZbX6qd" opacity="1" fill-opacity="0" stroke="#000000" stroke-width="1" stroke-opacity="0"></use></g></g><g><use xlink:href="#e1io8qG3AQ" opacity="1" fill="#ffffff" fill-opacity="1"></use><g><use xlink:href="#e1io8qG3AQ" opacity="1" fill-opacity="0" stroke="#000000" stroke-width="1" stroke-opacity="0"></use></g></g><g><use xlink:href="#c6FNdKYrB" opacity="1" fill="#ffffff" fill-opacity="1"></use><g><use xlink:href="#c6FNdKYrB" opacity="1" fill-opacity="0" stroke="#000000" stroke-width="1" stroke-opacity="0"></use></g></g><g><use xlink:href="#d2H05tZYE7" opacity="1" fill="#ffffff" fill-opacity="1"></use><g><use xlink:href="#d2H05tZYE7" opacity="1" fill-opacity="0" stroke="#000000" stroke-width="1" stroke-opacity="0"></use></g></g></g></g></svg>