<?xml version="1.0" encoding="UTF-8" standalone="no"?>
<!DOCTYPE svg PUBLIC "-//W3C//DTD SVG 1.1//EN" "http://www.w3.org/Graphics/SVG/1.1/DTD/svg11.dtd">
<svg version="1.1" xmlns="http://www.w3.org/2000/svg" xmlns:xlink="http://www.w3.org/1999/xlink" preserveAspectRatio="xMidYMid meet" viewBox="0 0 640 640" width="24" height="24"><defs><path d="M640.6 320.3C640.6 497.08 497.08 640.6 320.3 640.6C143.52 640.6 0 497.08 0 320.3C0 143.52 143.52 0 320.3 0C497.08 0 640.6 143.52 640.6 320.3Z" id="b1kHhZZhsl"></path><path d="M428.85 279.84C420.17 260.54 412.66 240.12 408.91 221.13C402.9 190.63 375.94 168.5 344.83 168.5C336.95 168.5 330.55 174.89 330.55 182.78C330.55 190.66 336.95 197.06 344.83 197.06C348.23 197.06 351.54 197.53 354.69 198.41C364.27 201.09 372.4 207.57 377.14 216.27C376.75 216.76 376.39 217.26 376.06 217.81C375.77 218.31 374.29 220.8 371.63 225.28L349.18 263.06L229.27 263.06L222.46 245.9C224.16 245.9 225.1 245.9 225.29 245.9C233.17 245.9 239.57 239.51 239.57 231.62C239.57 223.74 233.17 217.35 225.29 217.35C220.36 217.35 180.98 217.35 176.05 217.35C168.17 217.35 161.77 223.74 161.77 231.62C161.77 239.51 168.17 245.9 176.05 245.9C177.1 245.9 182.32 245.9 191.73 245.9C199.2 264.72 203.36 275.17 204.19 277.27C195.26 274.63 185.82 273.2 176.05 273.2C121.22 273.21 76.6 317.82 76.6 372.65C76.6 427.49 121.22 472.1 176.05 472.1C226.04 472.1 267.53 435.03 274.47 386.93C277.09 386.93 298.07 386.93 300.7 386.93C305.73 386.93 310.4 384.28 312.97 379.95C320.48 367.31 380.51 266.25 388.01 253.62C392.41 267.24 397.92 280.89 403.86 293.93C380.3 312.13 365.1 340.65 365.1 372.66C365.1 427.49 409.71 472.1 464.55 472.1C519.39 472.1 564 427.49 564 372.66C564 317.82 519.39 273.21 464.55 273.21C451.97 273.21 439.94 275.56 428.85 279.84ZM245.5 386.93C238.87 419.2 210.25 443.55 176.05 443.55C136.96 443.54 105.16 411.74 105.16 372.65C105.16 333.57 136.96 301.76 176.05 301.76C210.25 301.76 238.87 326.11 245.5 358.38C238.55 358.38 183 358.38 176.05 358.38C168.17 358.38 161.77 364.77 161.77 372.65C161.77 380.54 168.17 386.93 176.05 386.93C189.94 386.93 238.55 386.93 245.5 386.93ZM274.47 358.38C271.16 335.43 259.99 315 243.78 299.91C243.63 299.33 243.46 298.76 243.23 298.2C243.06 297.76 242.19 295.57 240.62 291.62L332.22 291.62L292.57 358.38C281.71 358.38 275.68 358.38 274.47 358.38ZM393.66 372.65C393.66 351.95 402.59 333.29 416.79 320.31C434.35 353.87 451.51 378.89 452.8 380.77C455.57 384.78 460.03 386.93 464.56 386.93C467.36 386.93 470.19 386.11 472.66 384.4C479.15 379.92 480.78 371.03 476.3 364.54C475.99 364.1 458.72 338.9 441.41 305.66C448.67 303.15 456.45 301.76 464.55 301.76C503.64 301.76 535.44 333.56 535.44 372.65C535.44 411.74 503.64 443.54 464.55 443.54C425.46 443.54 393.66 411.74 393.66 372.65Z" id="b556aXpJNb"></path></defs><g><g><g><use xlink:href="#b1kHhZZhsl" opacity="1" fill="#409cd1" fill-opacity="1"></use></g><g><use xlink:href="#b556aXpJNb" opacity="1" fill="#ffffff" fill-opacity="1"></use><g><use xlink:href="#b556aXpJNb" opacity="1" fill-opacity="0" stroke="#000000" stroke-width="1" stroke-opacity="0"></use></g></g></g></g></svg>