<?xml version="1.0" encoding="UTF-8" standalone="no"?>
<!DOCTYPE svg PUBLIC "-//W3C//DTD SVG 1.1//EN" "http://www.w3.org/Graphics/SVG/1.1/DTD/svg11.dtd">
<svg version="1.1" xmlns="http://www.w3.org/2000/svg" xmlns:xlink="http://www.w3.org/1999/xlink" preserveAspectRatio="xMidYMid meet" viewBox="0 0 640 640" width="24" height="24"><defs><path d="M640 320.3C640 497.08 496.48 640.6 319.7 640.6C142.92 640.6 -0.6 497.08 -0.6 320.3C-0.6 143.52 142.92 0 319.7 0C496.48 0 640 143.52 640 320.3Z" id="b4jNtxFXEC"></path><path d="M137.61 195.12C137.61 216.74 137.61 389.72 137.61 411.34C137.61 455.39 173.35 491.01 217.27 491.01C215 493.28 203.62 504.66 183.13 525.15L183.13 536.53L456.26 536.53L456.26 525.15C435.78 504.66 424.4 493.28 422.12 491.01C466.16 491.01 501.79 455.39 501.79 411.34C501.79 389.72 501.79 216.74 501.79 195.12C501.78 115.45 420.3 104.07 319.7 104.07C219.1 104.07 137.61 115.45 137.61 195.12ZM183.13 411.34C183.13 392.45 198.38 377.2 217.27 377.2C236.17 377.2 251.42 392.45 251.42 411.34C251.42 430.24 236.17 445.49 217.27 445.49C198.38 445.49 183.13 430.24 183.13 411.34ZM183.13 308.92L183.13 195.12L296.94 195.12L296.94 308.92L183.13 308.92ZM387.98 411.34C387.98 392.45 403.23 377.2 422.12 377.2C441.01 377.2 456.26 392.45 456.26 411.34C456.26 430.24 441.01 445.49 422.12 445.49C403.23 445.49 387.98 430.24 387.98 411.34ZM342.46 308.92L342.46 195.12L456.26 195.12L456.26 308.92L342.46 308.92Z" id="a4UPQXhzx"></path></defs><g><g><g><use xlink:href="#b4jNtxFXEC" opacity="1" fill="#409cd1" fill-opacity="1"></use></g><g><use xlink:href="#a4UPQXhzx" opacity="1" fill="#ffffff" fill-opacity="1"></use><g><use xlink:href="#a4UPQXhzx" opacity="1" fill-opacity="0" stroke="#000000" stroke-width="1" stroke-opacity="0"></use></g></g></g></g></svg>