<?xml version="1.0" encoding="UTF-8" standalone="no"?>
<!DOCTYPE svg PUBLIC "-//W3C//DTD SVG 1.1//EN" "http://www.w3.org/Graphics/SVG/1.1/DTD/svg11.dtd">
<svg version="1.1" xmlns="http://www.w3.org/2000/svg" xmlns:xlink="http://www.w3.org/1999/xlink" preserveAspectRatio="xMidYMid meet" viewBox="0 0 640 640" width="24" height="24"><defs><path d="M640 320.3C640 497.08 496.48 640.6 319.7 640.6C142.92 640.6 -0.6 497.08 -0.6 320.3C-0.6 143.52 142.92 0 319.7 0C496.48 0 640 143.52 640 320.3Z" id="f46i9VuKiQ"></path><path d="M341.46 141.22C341.46 162.38 358.68 180.44 379.84 180.44C401 180.44 418.21 162.38 418.21 141.22C418.21 120.06 401 101.99 379.84 101.99C358.68 101.99 341.46 120.06 341.46 141.22Z" id="a60NRu5jx"></path><path d="M406.32 282.78C380.18 243.56 365.65 221.78 362.75 217.42C351.06 199.89 325.22 203.37 317.7 222.11C312.59 234.9 271.65 337.22 266.54 350.01C261.63 362.28 267.04 376.51 278.85 382.41C284.73 385.35 314.13 400.05 367.05 426.51C367.05 478.42 367.05 507.26 367.05 513.03C367.05 527.13 378.53 538.61 392.63 538.61C406.73 538.61 418.21 527.13 418.21 513.03C418.21 502.8 418.21 420.93 418.21 410.7C418.21 400.94 412.79 392.17 404.07 387.81C398.65 385.1 371.56 371.55 322.79 347.16L347.17 286.26C361.67 308.04 369.73 320.13 371.34 322.55C376.1 329.69 384.06 333.95 392.63 333.95C400.3 333.95 461.71 333.95 469.38 333.95C483.48 333.95 494.96 322.47 494.96 308.36C494.96 294.26 483.48 282.78 469.38 282.78C460.97 282.78 439.95 282.78 406.32 282.78Z" id="aylDJj5Mt"></path><path d="M204.16 248C184.28 240.93 162.24 251.42 155.19 271.36C154.34 273.77 147.5 293.07 146.65 295.48C139.55 315.51 150.07 337.4 170.01 344.47C174.83 346.17 213.42 359.83 218.24 361.54C225.33 364.06 232.65 364.28 239.49 362.73C238.98 355.32 239.88 347.75 242.79 340.5C244.63 335.9 253.84 312.89 270.41 271.46C230.66 257.38 208.58 249.57 204.16 248Z" id="b2dkuAH5il"></path><path d="M268.23 162.22C248.48 155.21 226.39 165.38 219.25 185.58C217.96 189.24 207.58 218.54 206.28 222.2C208.44 222.72 210.62 223.14 212.73 223.89C217.21 225.48 239.61 233.41 279.92 247.69C288.34 226.63 293.02 214.94 293.95 212.6C297.92 202.72 304.67 194.65 313.09 189.04C308.7 180.8 301.66 174.05 292.34 170.75C287.52 169.04 270.64 163.07 268.23 162.22Z" id="e1vOgg3JhN"></path><path d="M443.8 525.82C443.8 532.89 449.52 538.61 456.59 538.61C463.66 538.61 469.38 532.89 469.38 525.82C469.38 514.74 469.38 459.31 469.38 359.53L443.8 359.53C443.8 429.77 443.8 485.2 443.8 525.82Z" id="a13fcgPCar"></path><path d="M264.71 403.61C264.71 406.58 264.71 421.43 264.71 448.17C225.5 474.32 203.71 488.84 199.35 491.74C187.66 499.53 184.38 515.39 192.26 527.22C200.09 538.96 216 542.15 227.74 534.32C235.41 529.2 296.81 488.27 304.49 483.15C311.62 478.39 315.88 470.43 315.88 461.86C315.88 459.71 315.88 448.93 315.88 429.53L267.41 405.3C266.23 404.53 265.33 403.97 264.71 403.61Z" id="a4Vr2JF47x"></path></defs><g><g><g><use xlink:href="#f46i9VuKiQ" opacity="1" fill="#409cd1" fill-opacity="1"></use></g><g><use xlink:href="#a60NRu5jx" opacity="1" fill="#ffffff" fill-opacity="1"></use><g><use xlink:href="#a60NRu5jx" opacity="1" fill-opacity="0" stroke="#000000" stroke-width="1" stroke-opacity="0"></use></g></g><g><use xlink:href="#aylDJj5Mt" opacity="1" fill="#ffffff" fill-opacity="1"></use><g><use xlink:href="#aylDJj5Mt" opacity="1" fill-opacity="0" stroke="#000000" stroke-width="1" stroke-opacity="0"></use></g></g><g><use xlink:href="#b2dkuAH5il" opacity="1" fill="#ffffff" fill-opacity="1"></use><g><use xlink:href="#b2dkuAH5il" opacity="1" fill-opacity="0" stroke="#000000" stroke-width="1" stroke-opacity="0"></use></g></g><g><use xlink:href="#e1vOgg3JhN" opacity="1" fill="#ffffff" fill-opacity="1"></use><g><use xlink:href="#e1vOgg3JhN" opacity="1" fill-opacity="0" stroke="#000000" stroke-width="1" stroke-opacity="0"></use></g></g><g><use xlink:href="#a13fcgPCar" opacity="1" fill="#ffffff" fill-opacity="1"></use><g><use xlink:href="#a13fcgPCar" opacity="1" fill-opacity="0" stroke="#000000" stroke-width="1" stroke-opacity="0"></use></g></g><g><use xlink:href="#a4Vr2JF47x" opacity="1" fill="#ffffff" fill-opacity="1"></use><g><use xlink:href="#a4Vr2JF47x" opacity="1" fill-opacity="0" stroke="#000000" stroke-width="1" stroke-opacity="0"></use></g></g></g></g></svg>