<?xml version="1.0" encoding="UTF-8" standalone="no"?>
<!DOCTYPE svg PUBLIC "-//W3C//DTD SVG 1.1//EN" "http://www.w3.org/Graphics/SVG/1.1/DTD/svg11.dtd">
<svg version="1.1" xmlns="http://www.w3.org/2000/svg" xmlns:xlink="http://www.w3.org/1999/xlink" preserveAspectRatio="xMidYMid meet" viewBox="0 0 640 640" width="24" height="24"><defs><path d="M640 320.3C640 497.08 496.48 640.6 319.7 640.6C142.92 640.6 -0.6 497.08 -0.6 320.3C-0.6 143.52 142.92 0 319.7 0C496.48 0 640 143.52 640 320.3Z" id="de1QW2jOw"></path><path d="M268.46 186.67C266.23 186.67 248.37 186.67 246.14 186.67C244.9 186.68 243.91 187.68 243.91 188.91C243.91 189.4 244.08 189.88 244.38 190.26C248.12 195.07 266.85 219.1 300.55 262.36L373.38 262.48L291.23 194.89C281.59 189.42 274.01 186.68 268.46 186.67Z" id="b3eTwRlb9B"></path><path d="M523.53 280.21L523.52 280.21C308.41 279.97 188.9 279.83 165 279.8C153.31 279.85 142.47 273.68 136.54 263.6C133.4 259.8 108.24 229.38 105.1 225.58C102.73 222.72 99.21 221.06 95.49 221.07C88.61 221.06 83.03 226.64 83.03 233.52C83.03 235.33 83.42 237.11 84.18 238.75C87.58 246.12 114.81 305.12 118.21 312.49C118.28 312.63 118.34 312.77 118.4 312.91C120.38 318.19 125.07 321.99 130.65 322.82C147.62 324.65 283.37 339.27 300.34 341.1C305.24 341.63 308.77 346.02 308.25 350.91C308.04 352.8 307.24 354.57 305.96 355.97C297.33 365.41 228.27 440.87 219.64 450.31C218.87 451.26 219.02 452.67 219.98 453.44C220.37 453.75 220.86 453.93 221.37 453.93C224.65 453.93 250.86 453.93 254.14 453.93C262.69 453.93 270.96 450.86 277.43 445.27C277.5 445.21 277.57 445.16 277.64 445.09C289.03 435.86 380.17 361.99 391.56 352.76C393.19 351.44 395.23 350.74 397.33 350.77C409.96 351 510.98 352.83 523.61 353.06C541.68 353.01 556.37 336.6 556.37 316.64C556.37 296.3 541.94 280.21 523.53 280.21C523.53 280.21 523.53 280.21 523.53 280.21Z" id="e4h2Ij1WjN"></path></defs><g><g><g><use xlink:href="#de1QW2jOw" opacity="1" fill="#409cd1" fill-opacity="1"></use></g><g><use xlink:href="#b3eTwRlb9B" opacity="1" fill="#ffffff" fill-opacity="1"></use><g><use xlink:href="#b3eTwRlb9B" opacity="1" fill-opacity="0" stroke="#000000" stroke-width="1" stroke-opacity="0"></use></g></g><g><use xlink:href="#e4h2Ij1WjN" opacity="1" fill="#ffffff" fill-opacity="1"></use><g><use xlink:href="#e4h2Ij1WjN" opacity="1" fill-opacity="0" stroke="#000000" stroke-width="1" stroke-opacity="0"></use></g></g></g></g></svg>