<?xml version="1.0" encoding="UTF-8" standalone="no"?>
<!DOCTYPE svg PUBLIC "-//W3C//DTD SVG 1.1//EN" "http://www.w3.org/Graphics/SVG/1.1/DTD/svg11.dtd">
<svg version="1.1" xmlns="http://www.w3.org/2000/svg" xmlns:xlink="http://www.w3.org/1999/xlink" preserveAspectRatio="xMidYMid meet" viewBox="0 0 640 640" width="24" height="24"><defs><path d="M640.6 319.7C640.6 496.48 497.08 640 320.3 640C143.52 640 0 496.48 0 319.7C0 142.92 143.52 -0.6 320.3 -0.6C497.08 -0.6 640.6 142.92 640.6 319.7Z" id="a1bI51mqXi"></path><path d="M334.81 72.09L341.94 72.8L348.99 73.79L355.94 75.05L362.8 76.58L369.55 78.37L376.2 80.41L382.73 82.7L389.14 85.23L395.42 88L401.57 91L407.59 94.23L413.46 97.67L419.18 101.33L424.74 105.2L430.15 109.28L435.39 113.55L440.46 118.01L445.35 122.66L450.06 127.49L454.58 132.5L458.9 137.67L463.03 143.01L466.94 148.51L470.65 154.16L474.14 159.96L477.41 165.9L480.45 171.97L483.25 178.18L485.81 184.51L488.13 190.96L490.2 197.52L492.01 204.19L493.55 210.96L494.83 217.83L495.84 224.79L496.56 231.84L497 238.96L497.15 246.16L497 253.36L496.56 260.5L495.84 267.59L494.83 274.64L493.55 281.65L492.01 288.63L490.2 295.59L488.13 302.54L485.81 309.49L483.25 316.44L480.45 323.41L477.41 330.39L474.14 337.41L470.65 344.47L466.94 351.57L463.03 358.72L458.9 365.94L454.58 373.23L450.06 380.59L445.35 388.04L440.46 395.59L435.39 403.24L430.15 411L424.74 418.88L419.18 426.89L413.46 435.04L407.59 443.33L401.57 451.77L395.42 460.37L389.14 469.14L382.73 478.08L376.2 487.21L369.55 496.54L362.8 506.06L355.94 515.8L348.99 525.75L341.94 535.92L334.81 546.34L327.59 556.99L320.3 567.89L313.01 556.99L305.8 546.34L298.66 535.92L291.62 525.75L284.66 515.8L277.8 506.06L271.05 496.54L264.4 487.21L257.87 478.08L251.47 469.14L245.18 460.37L239.03 451.77L233.02 443.33L227.15 435.04L221.43 426.89L215.86 418.88L210.45 411L205.21 403.24L200.14 395.59L195.25 388.04L190.55 380.59L186.03 373.23L181.7 365.94L177.58 358.72L173.66 351.57L169.95 344.47L166.46 337.41L163.2 330.39L160.16 323.41L157.35 316.44L154.79 309.49L152.47 302.54L150.41 295.59L148.6 288.63L147.05 281.65L145.77 274.64L144.77 267.59L144.04 260.5L143.6 253.36L143.46 246.16L143.6 238.96L144.04 231.84L144.77 224.79L145.77 217.83L147.05 210.96L148.6 204.19L150.41 197.52L152.47 190.96L154.79 184.51L157.35 178.18L160.16 171.97L163.2 165.9L166.46 159.96L169.95 154.16L173.66 148.51L177.58 143.01L181.7 137.67L186.03 132.5L190.55 127.49L195.25 122.66L200.14 118.01L205.21 113.55L210.45 109.28L215.86 105.2L221.43 101.33L227.15 97.67L233.02 94.23L239.03 91L245.18 88L251.47 85.23L257.87 82.7L264.4 80.41L271.05 78.37L277.8 76.58L284.66 75.05L291.62 73.79L298.66 72.8L305.8 72.09L313.01 71.65L320.3 71.51L327.59 71.65L334.81 72.09ZM313.43 154.51L310.05 154.85L306.71 155.32L303.42 155.92L300.17 156.64L296.97 157.49L293.82 158.45L290.73 159.54L287.69 160.74L284.72 162.05L281.8 163.47L278.96 165L276.18 166.63L273.47 168.37L270.83 170.2L268.27 172.13L265.79 174.15L263.38 176.27L261.07 178.47L258.84 180.76L256.7 183.13L254.65 185.58L252.7 188.11L250.84 190.71L249.08 193.39L247.43 196.13L245.88 198.95L244.44 201.83L243.12 204.77L241.9 207.76L240.8 210.82L239.82 213.93L238.97 217.09L238.23 220.29L237.63 223.55L237.15 226.85L236.81 230.18L236.6 233.56L236.53 236.97L236.6 240.38L236.81 243.75L237.15 247.09L237.63 250.39L238.23 253.64L238.97 256.85L239.82 260.01L240.8 263.12L241.9 266.17L243.12 269.17L244.44 272.11L245.88 274.99L247.43 277.8L249.08 280.55L250.84 283.22L252.7 285.83L254.65 288.36L256.7 290.81L258.84 293.18L261.07 295.47L263.38 297.67L265.79 299.78L268.27 301.81L270.83 303.74L273.47 305.57L276.18 307.3L278.96 308.94L281.8 310.46L284.72 311.89L287.69 313.2L290.73 314.4L293.82 315.48L296.97 316.45L300.17 317.29L303.42 318.02L306.71 318.62L310.05 319.09L313.43 319.42L316.85 319.63L320.3 319.7L323.75 319.63L327.17 319.42L330.55 319.09L333.89 318.62L337.18 318.02L340.43 317.29L343.63 316.45L346.78 315.48L349.87 314.4L352.91 313.2L355.88 311.89L358.8 310.46L361.65 308.94L364.43 307.3L367.14 305.57L369.77 303.74L372.34 301.81L374.82 299.78L377.22 297.67L379.54 295.47L381.77 293.18L383.91 290.81L385.95 288.36L387.91 285.83L389.76 283.22L391.52 280.55L393.17 277.8L394.72 274.99L396.16 272.11L397.49 269.17L398.7 266.17L399.8 263.12L400.78 260.01L401.64 256.85L402.37 253.64L402.97 250.39L403.45 247.09L403.79 243.75L404 240.38L404.07 236.97L404 233.56L403.79 230.18L403.45 226.85L402.97 223.55L402.37 220.29L401.64 217.09L400.78 213.93L399.8 210.82L398.7 207.76L397.49 204.77L396.16 201.83L394.72 198.95L393.17 196.13L391.52 193.39L389.76 190.71L387.91 188.11L385.95 185.58L383.91 183.13L381.77 180.76L379.54 178.47L377.22 176.27L374.82 174.15L372.34 172.13L369.77 170.2L367.14 168.37L364.43 166.63L361.65 165L358.8 163.47L355.88 162.05L352.91 160.74L349.87 159.54L346.78 158.45L343.63 157.49L340.43 156.64L337.18 155.92L333.89 155.32L330.55 154.85L327.17 154.51L323.75 154.31L320.3 154.24L316.85 154.31L313.43 154.51Z" id="a11c5BY7Et"></path></defs><g><g><g><use xlink:href="#a1bI51mqXi" opacity="1" fill="#e74b3d" fill-opacity="1"></use></g><g><use xlink:href="#a11c5BY7Et" opacity="1" fill="#ffffff" fill-opacity="1"></use><g><use xlink:href="#a11c5BY7Et" opacity="1" fill-opacity="0" stroke="#ffffff" stroke-width="1" stroke-opacity="1"></use></g></g></g></g></svg>