<?xml version="1.0" encoding="UTF-8" standalone="no"?>
<!DOCTYPE svg PUBLIC "-//W3C//DTD SVG 1.1//EN" "http://www.w3.org/Graphics/SVG/1.1/DTD/svg11.dtd">
<svg version="1.1" xmlns="http://www.w3.org/2000/svg" xmlns:xlink="http://www.w3.org/1999/xlink" preserveAspectRatio="xMidYMid meet" viewBox="0 0 640 640" width="24" height="24"><defs><path d="M640.6 320C640.6 496.78 497.08 640.3 320.3 640.3C143.52 640.3 0 496.78 0 320C0 143.22 143.52 -0.3 320.3 -0.3C497.08 -0.3 640.6 143.22 640.6 320Z" id="g1i04lEgp8"></path><path d="M334.5 72.39L341.64 73.1L348.69 74.09L355.64 75.36L362.5 76.88L369.25 78.67L375.9 80.71L382.43 83L388.84 85.53L395.12 88.3L401.27 91.3L407.28 94.53L413.15 97.97L418.88 101.64L424.44 105.51L429.85 109.58L435.09 113.85L440.16 118.31L445.05 122.96L449.76 127.79L454.28 132.8L458.6 137.97L462.72 143.31L466.64 148.81L470.35 154.46L473.84 160.26L477.11 166.2L480.14 172.27L482.95 178.48L485.51 184.81L487.83 191.26L489.9 197.82L491.71 204.49L493.25 211.26L494.53 218.13L495.53 225.09L496.26 232.14L496.7 239.26L496.85 246.46L496.7 253.66L496.26 260.8L495.53 267.89L494.53 274.94L493.25 281.95L491.71 288.93L489.9 295.89L487.83 302.84L485.51 309.79L482.95 316.74L480.14 323.71L477.11 330.7L473.84 337.71L470.35 344.77L466.64 351.87L462.72 359.02L458.6 366.24L454.28 373.53L449.76 380.89L445.05 388.35L440.16 395.89L435.09 403.54L429.85 411.3L424.44 419.19L418.88 427.19L413.15 435.34L407.28 443.63L401.27 452.07L395.12 460.67L388.84 469.44L382.43 478.38L375.9 487.51L369.25 496.84L362.5 506.36L355.64 516.1L348.69 526.05L341.64 536.23L334.5 546.64L327.29 557.29L320 568.19L312.71 557.29L305.5 546.64L298.36 536.23L291.31 526.05L284.36 516.1L277.5 506.36L270.75 496.84L264.1 487.51L257.57 478.38L251.16 469.44L244.88 460.67L238.73 452.07L232.72 443.63L226.85 435.34L221.12 427.19L215.56 419.19L210.15 411.3L204.91 403.54L199.84 395.89L194.95 388.35L190.24 380.89L185.72 373.53L181.4 366.24L177.28 359.02L173.36 351.87L169.65 344.77L166.16 337.71L162.89 330.7L159.86 323.71L157.05 316.74L154.49 309.79L152.17 302.84L150.1 295.89L148.29 288.93L146.75 281.95L145.47 274.94L144.47 267.89L143.74 260.8L143.3 253.66L143.15 246.46L143.3 239.26L143.74 232.14L144.47 225.09L145.47 218.13L146.75 211.26L148.29 204.49L150.1 197.82L152.17 191.26L154.49 184.81L157.05 178.48L159.86 172.27L162.89 166.2L166.16 160.26L169.65 154.46L173.36 148.81L177.28 143.31L181.4 137.97L185.72 132.8L190.24 127.79L194.95 122.96L199.84 118.31L204.91 113.85L210.15 109.58L215.56 105.51L221.12 101.64L226.85 97.97L232.72 94.53L238.73 91.3L244.88 88.3L251.16 85.53L257.57 83L264.1 80.71L270.75 78.67L277.5 76.88L284.36 75.36L291.31 74.09L298.36 73.1L305.5 72.39L312.71 71.95L320 71.81L327.29 71.95L334.5 72.39ZM313.13 154.81L309.75 155.15L306.41 155.62L303.12 156.22L299.87 156.94L296.67 157.79L293.52 158.76L290.43 159.84L287.39 161.04L284.42 162.35L281.5 163.77L278.65 165.3L275.87 166.93L273.16 168.67L270.53 170.5L267.97 172.43L265.48 174.45L263.08 176.57L260.77 178.77L258.54 181.06L256.4 183.43L254.35 185.88L252.39 188.41L250.54 191.01L248.78 193.69L247.13 196.44L245.58 199.25L244.14 202.13L242.81 205.07L241.6 208.07L240.5 211.12L239.52 214.23L238.67 217.39L237.93 220.6L237.33 223.85L236.85 227.15L236.51 230.48L236.3 233.86L236.23 237.27L236.3 240.68L236.51 244.05L236.85 247.39L237.33 250.69L237.93 253.94L238.67 257.15L239.52 260.31L240.5 263.42L241.6 266.47L242.81 269.47L244.14 272.41L245.58 275.29L247.13 278.1L248.78 280.85L250.54 283.52L252.39 286.13L254.35 288.66L256.4 291.11L258.54 293.48L260.77 295.77L263.08 297.97L265.48 300.09L267.97 302.11L270.53 304.04L273.16 305.87L275.87 307.61L278.65 309.24L281.5 310.77L284.42 312.19L287.39 313.5L290.43 314.7L293.52 315.78L296.67 316.75L299.87 317.6L303.12 318.32L306.41 318.92L309.75 319.39L313.13 319.73L316.55 319.93L320 320L323.45 319.93L326.87 319.73L330.25 319.39L333.59 318.92L336.88 318.32L340.13 317.6L343.33 316.75L346.48 315.78L349.57 314.7L352.61 313.5L355.58 312.19L358.5 310.77L361.35 309.24L364.13 307.61L366.84 305.87L369.47 304.04L372.03 302.11L374.52 300.09L376.92 297.97L379.23 295.77L381.46 293.48L383.6 291.11L385.65 288.66L387.61 286.13L389.46 283.52L391.22 280.85L392.87 278.1L394.42 275.29L395.86 272.41L397.19 269.47L398.4 266.47L399.5 263.42L400.48 260.31L401.33 257.15L402.07 253.94L402.67 250.69L403.15 247.39L403.49 244.05L403.7 240.68L403.77 237.27L403.7 233.86L403.49 230.48L403.15 227.15L402.67 223.85L402.07 220.6L401.33 217.39L400.48 214.23L399.5 211.12L398.4 208.07L397.19 205.07L395.86 202.13L394.42 199.25L392.87 196.44L391.22 193.69L389.46 191.01L387.61 188.41L385.65 185.88L383.6 183.43L381.46 181.06L379.23 178.77L376.92 176.57L374.52 174.45L372.03 172.43L369.47 170.5L366.84 168.67L364.13 166.93L361.35 165.3L358.5 163.77L355.58 162.35L352.61 161.04L349.57 159.84L346.48 158.76L343.33 157.79L340.13 156.94L336.88 156.22L333.59 155.62L330.25 155.15L326.87 154.81L323.45 154.61L320 154.54L316.55 154.61L313.13 154.81Z" id="c3lpco7mGt"></path></defs><g><g><g><use xlink:href="#g1i04lEgp8" opacity="1" fill="#41c4ab" fill-opacity="1"></use></g><g transform="matrix(0.9999981303203297 0 0 0.9999904306302505 0.0002676533750047838 0.0006871537140256123)" vector-effect="non-scaling-stroke"><use xlink:href="#c3lpco7mGt" opacity="1" fill="#ffffff" fill-opacity="1"></use><g><use xlink:href="#c3lpco7mGt" opacity="1" fill-opacity="0" stroke="#ffffff" stroke-width="1" stroke-opacity="1"></use></g></g></g></g></svg>